<?xml version="1.0" encoding="utf-8"?>
<!-- Generator: Adobe Illustrator 25.1.0, SVG Export Plug-In . SVG Version: 6.00 Build 0)  -->
<svg version="1.1" id="Capa_1" xmlns="http://www.w3.org/2000/svg" xmlns:xlink="http://www.w3.org/1999/xlink" x="0px" y="0px"
	 viewBox="0 0 32 32" style="enable-background:new 0 0 32 32;" xml:space="preserve">
<style type="text/css">
	.st0{fill:#9CD919;}
</style>
<path class="st0" d="M27.2,24.6c-0.2-0.2-0.3-0.3-0.5-0.3H6.4c-0.2,0-0.3-0.1-0.3-0.3v-6l4.9-2.8c0.1,0.1,0.2,0.2,0.3,0.3
	c0.3,0.2,0.6,0.3,0.9,0.3c0.3,0,0.7-0.1,0.9-0.3c0.1-0.1,0.2-0.1,0.3-0.2l2.2,1.9c-0.1,0.2-0.2,0.5-0.2,0.8c0,0.3,0.1,0.7,0.3,0.9
	c0.2,0.3,0.4,0.5,0.7,0.7c0.3,0.2,0.6,0.3,0.9,0.3c0.3,0,0.7-0.1,0.9-0.3c0.3-0.2,0.5-0.4,0.7-0.7c0.2-0.3,0.3-0.6,0.3-0.9
	c0-0.1,0-0.2,0-0.3l5.3-3.2c0,0,0.1,0.1,0.1,0.1c0.3,0.2,0.6,0.3,0.9,0.3s0.7-0.1,0.9-0.3c0.3-0.2,0.5-0.4,0.7-0.7
	c0.2-0.3,0.3-0.6,0.3-0.9s-0.1-0.7-0.3-0.9c-0.2-0.3-0.3-0.5-0.7-0.7c-0.3-0.2-0.6-0.3-0.9-0.3c-0.3,0-0.7,0.1-0.9,0.3
	c-0.3,0.2-0.5,0.4-0.7,0.7c-0.2,0.3-0.3,0.6-0.3,0.9c0,0.2,0,0.4,0.1,0.5l-5.1,3.1c-0.1-0.1-0.2-0.2-0.3-0.3
	c-0.3-0.2-0.6-0.3-0.9-0.3c-0.3,0-0.7,0.1-0.9,0.2l-2.4-2c0-0.1,0.1-0.3,0.1-0.4c0-0.3-0.1-0.7-0.3-0.9c-0.2-0.3-0.3-0.5-0.7-0.7
	C13,12.1,12.6,12,12.3,12c-0.3,0-0.7,0.1-0.9,0.3c-0.3,0.2-0.5,0.3-0.7,0.7c-0.2,0.3-0.3,0.6-0.3,0.9c0,0.1,0,0.2,0,0.3l-4.3,2.5
	V6.9c0-0.3-0.1-0.4-0.3-0.6S5.5,6,5.3,6C5.1,6,4.9,6.1,4.8,6.3C4.6,6.4,4.5,6.6,4.5,6.9v18.3c0,0.3,0.1,0.4,0.3,0.6
	C4.9,25.9,5.1,26,5.3,26h21.4c0.2,0,0.4-0.1,0.5-0.3c0.2-0.2,0.3-0.3,0.3-0.6C27.5,24.9,27.4,24.7,27.2,24.6z"/>
</svg>
