<!-- <?xml version="1.0" encoding="utf-8"?> -->
<!-- Generator: Adobe Illustrator 25.1.0, SVG Export Plug-In . SVG Version: 6.00 Build 0)  -->
<svg version="1.1" id="Capa_1" xmlns="http://www.w3.org/2000/svg" xmlns:xlink="http://www.w3.org/1999/xlink" x="0px" y="0px"
	 viewBox="0 0 32 32" style="enable-background:new 0 0 32 32;" xml:space="preserve">
<style type="text/css">
	.st0{fill:#9CD919;}
</style>
<path class="st0" d="M27.2,14.8l-2.5-2.1V8.6c0-0.2-0.1-0.4-0.2-0.5C24.4,8,24.3,8,24.1,8h-1c-0.2,0-0.4,0.1-0.5,0.2
	c-0.2,0.2-0.2,0.3-0.2,0.5v2.2l-5.4-4.5C16.8,6,16.4,5.8,16,5.8S15.2,6,14.8,6.3L4.7,14.8c-0.2,0.2-0.2,0.3-0.2,0.5
	c0,0.2,0.1,0.3,0.2,0.5S5,16,5.3,16c0.2,0,0.2,0,0.3-0.1c0.1-0.1,0.2-0.2,0.3-0.2l1.3-1.1v9.5c0,0.7,0.2,1.2,0.5,1.5
	c0.5,0.4,1,0.5,1.6,0.5h13.2c0.7,0,1.2-0.2,1.5-0.5c0.4-0.4,0.5-0.8,0.5-1.5v-9.6l1.5,1.2c0.1,0.1,0.2,0.2,0.3,0.2
	c0.1,0.1,0.2,0.1,0.3,0.1c0.2,0,0.4-0.1,0.5-0.2c0.2-0.2,0.2-0.3,0.2-0.5C27.5,15.2,27.4,14.9,27.2,14.8z M23.2,23.7
	c0,0.3-0.1,0.6-0.2,0.8s-0.4,0.2-0.8,0.2h-3.3v-6.6c0-0.2-0.1-0.4-0.2-0.5c-0.2-0.2-0.3-0.2-0.5-0.2h-4.2c-0.2,0-0.4,0.1-0.5,0.2
	c-0.2,0.2-0.2,0.3-0.2,0.5v6.6H9.7c-0.3,0-0.5-0.1-0.8-0.2c-0.2-0.2-0.2-0.4-0.2-0.8V13.4l7-5.9c0.1-0.1,0.2-0.2,0.3-0.2
	c0.2,0,0.2,0.1,0.4,0.2l6.8,5.7V23.7z"/>
</svg>
