<?xml version="1.0" encoding="utf-8"?>
<!-- Generator: Adobe Illustrator 25.1.0, SVG Export Plug-In . SVG Version: 6.00 Build 0)  -->
<svg version="1.1" id="Capa_1" xmlns="http://www.w3.org/2000/svg" xmlns:xlink="http://www.w3.org/1999/xlink" x="0px" y="0px"
	 viewBox="0 0 32 32" style="enable-background:new 0 0 32 32;" xml:space="preserve">
<style type="text/css">
	.st0{fill:#9CD919;}
</style>
<path class="st0" d="M10.4,20h1.3c0.3,0,0.5-0.1,0.7-0.2s0.3-0.3,0.4-0.6l0.3-1.1h0.1h0.1l0.9,0.6c0.2,0.1,0.4,0.2,0.7,0.1
	c0.3,0,0.5-0.1,0.6-0.3l0.9-0.9c0.2-0.2,0.3-0.4,0.3-0.6c0-0.2,0-0.5-0.1-0.7l-0.6-0.9l0,0c0,0,0,0,0-0.1l0,0c0,0,0,0,0-0.1l1.1-0.3
	c0.3-0.1,0.4-0.2,0.6-0.3c0.1-0.2,0.2-0.4,0.2-0.7v-1.1c0-0.3-0.1-0.5-0.2-0.7c-0.1-0.2-0.3-0.3-0.6-0.4l-1.1-0.3v-0.1v-0.1l0.6-0.9
	c0.1-0.2,0.2-0.4,0.1-0.7c0-0.2-0.1-0.5-0.3-0.6l-0.9-0.9c-0.2-0.2-0.4-0.3-0.6-0.3c-0.2,0-0.5,0-0.7,0.1l-0.9,0.6c0,0,0,0-0.1,0
	c0,0,0,0-0.1,0l0,0l0,0l-0.3-1.1c-0.1-0.3-0.2-0.5-0.4-0.6C12.2,7,12,6.9,11.7,6.9h-1.3C10.2,6.9,10,7,9.8,7.1S9.4,7.5,9.4,7.7
	L9.2,8.8H9.1H9L8.1,8.2C7.9,8.1,7.6,8,7.4,8.1C7.2,8.1,7,8.2,6.8,8.4L6,9.3C5.8,9.5,5.7,9.7,5.6,9.9c0,0.2,0,0.5,0.1,0.7l0.6,0.9
	c0,0,0,0,0,0.1l0,0c0,0,0,0,0,0.1c0,0,0,0,0,0.1l-1.1,0.3C5,12,4.9,12.1,4.7,12.3c-0.1,0.2-0.2,0.4-0.2,0.7v1.1
	c0,0.3,0.1,0.5,0.2,0.7C4.8,15,5,15.1,5.3,15.1l1.1,0.3v0.1v0.1l-0.6,0.9c-0.1,0.2-0.2,0.4-0.1,0.7c0,0.2,0.1,0.5,0.3,0.6l0.9,0.9
	c0.2,0.2,0.4,0.3,0.6,0.3c0.2,0,0.5,0,0.7-0.1l1-0.6h0.1h0.1l0.3,1.1c0.1,0.3,0.2,0.5,0.3,0.6S10.2,20,10.4,20z M10.6,18.9
	c-0.1,0-0.1,0-0.1-0.1c0,0-0.1-0.1-0.1-0.1l-0.3-1.5c-0.2-0.1-0.4-0.1-0.5-0.2c-0.2-0.1-0.3-0.1-0.5-0.3l-1.3,0.8
	c-0.1,0-0.1,0.1-0.1,0.1s-0.1,0-0.1-0.1l-0.7-0.7c-0.1-0.1-0.1-0.1-0.1-0.1c0-0.1,0-0.1,0.1-0.1l0.8-1.3c-0.1-0.1-0.1-0.3-0.2-0.5
	c-0.1-0.2-0.1-0.4-0.2-0.6l-1.5-0.3c-0.1,0-0.1,0-0.1-0.1c0,0-0.1-0.1-0.1-0.1v-0.9c0-0.1,0-0.1,0.1-0.1c0,0,0.1-0.1,0.1-0.1
	l1.5-0.3c0.1-0.2,0.1-0.4,0.2-0.6c0.1-0.2,0.1-0.3,0.2-0.5L6.9,9.9c0-0.1-0.1-0.1-0.1-0.1c0-0.1,0-0.1,0.1-0.1L7.6,9
	c0.1-0.1,0.1-0.1,0.1-0.1s0.1,0,0.1,0l1.3,0.8c0.1-0.1,0.3-0.1,0.5-0.2c0.2-0.1,0.3-0.1,0.5-0.2l0.3-1.5c0-0.1,0-0.1,0.1-0.1
	c0,0,0.1-0.1,0.1-0.1h0.9c0.1,0,0.1,0,0.1,0.1c0,0,0.1,0.1,0.1,0.1l0.3,1.5c0.2,0.1,0.4,0.1,0.5,0.2c0.2,0.1,0.3,0.1,0.5,0.2
	l1.3-0.8c0.1,0,0.1,0,0.1,0s0.1,0,0.1,0.1l0.7,0.7c0.1,0.1,0.1,0.1,0.1,0.1c0,0.1,0,0.1-0.1,0.1l-0.8,1.3c0.1,0.1,0.1,0.3,0.2,0.5
	c0.1,0.2,0.1,0.3,0.2,0.6l1.5,0.3c0.1,0,0.1,0.1,0.1,0.1c0,0,0.1,0.1,0.1,0.1v0.9c0,0.1,0,0.1-0.1,0.1c0,0-0.1,0.1-0.1,0.1l-1.5,0.3
	c-0.1,0.2-0.1,0.4-0.2,0.6c-0.1,0.2-0.1,0.3-0.2,0.5l0.8,1.3c0,0.1,0.1,0.1,0.1,0.1c0,0.1,0,0.1-0.1,0.1l-0.7,0.7
	c-0.1,0.1-0.1,0.1-0.1,0.1s-0.1,0-0.1-0.1l-1.3-0.8c-0.1,0.1-0.3,0.1-0.5,0.3c-0.2,0.1-0.3,0.1-0.5,0.2l-0.3,1.5
	c0,0.1,0,0.1-0.1,0.1c0,0-0.1,0.1-0.1,0.1H10.6z M11.1,15.9c0.5,0,0.9-0.1,1.3-0.3c0.4-0.2,0.7-0.5,0.9-0.9c0.2-0.4,0.3-0.8,0.3-1.3
	c0-0.5-0.1-0.9-0.3-1.3s-0.5-0.7-0.9-0.9c-0.4-0.2-0.8-0.3-1.3-0.3c-0.5,0-0.9,0.1-1.3,0.3c-0.4,0.2-0.7,0.5-0.9,0.9
	c-0.2,0.4-0.3,0.8-0.3,1.3c0,0.5,0.1,0.9,0.3,1.3c0.2,0.4,0.5,0.7,0.9,0.9C10.2,15.9,10.6,15.9,11.1,15.9z M11.1,14.8
	c-0.3,0-0.5-0.1-0.7-0.2c-0.2-0.1-0.4-0.3-0.5-0.5c-0.1-0.2-0.2-0.5-0.2-0.7s0.1-0.5,0.2-0.7c0.1-0.2,0.3-0.4,0.5-0.5
	c0.2-0.1,0.5-0.2,0.7-0.2c0.3,0,0.5,0.1,0.7,0.2c0.2,0.1,0.4,0.3,0.5,0.5c0.1,0.2,0.2,0.5,0.2,0.7s-0.1,0.5-0.2,0.7
	c-0.1,0.2-0.3,0.4-0.5,0.5C11.6,14.7,11.4,14.8,11.1,14.8z M21.5,25.1h0.9c0.3,0,0.5-0.1,0.6-0.2c0.2-0.1,0.3-0.3,0.3-0.5l0.2-0.9
	c0,0,0.1,0,0.1-0.1h0.1l0.7,0.5C24.6,24,24.8,24,25,24c0.2,0,0.4-0.1,0.5-0.3l0.7-0.7c0.1-0.2,0.3-0.3,0.3-0.6c0-0.2,0-0.4-0.1-0.6
	l-0.5-0.7l0,0c0,0,0,0,0-0.1c0,0,0,0,0-0.1l0.9-0.2c0.2-0.1,0.4-0.1,0.5-0.3c0.1-0.2,0.2-0.4,0.2-0.6v-0.9c0-0.2-0.1-0.4-0.2-0.6
	c-0.1-0.2-0.3-0.3-0.5-0.3l-0.9-0.2v-0.1v-0.1l0.5-0.7c0.1-0.2,0.2-0.4,0.1-0.6c0-0.2-0.1-0.4-0.3-0.5l-0.7-0.7
	c-0.1-0.2-0.3-0.3-0.5-0.3c-0.2,0-0.4,0-0.6,0.1l-0.7,0.5l0,0c0,0,0,0-0.1,0l0,0l0,0l-0.2-0.9c-0.1-0.2-0.1-0.4-0.3-0.5
	c-0.2-0.1-0.4-0.2-0.6-0.2h-1c-0.3,0-0.5,0.1-0.6,0.2c-0.2,0.1-0.3,0.3-0.3,0.5l-0.2,0.9h-0.1h-0.1L19.5,15
	c-0.2-0.1-0.4-0.1-0.6-0.1c-0.2,0-0.4,0.1-0.5,0.3l-0.7,0.7c-0.1,0.2-0.3,0.3-0.3,0.5c0,0.2,0,0.4,0.1,0.6l0.5,0.7c0,0,0,0,0,0.1
	c0,0,0,0,0,0.1c0,0,0,0,0,0.1l-0.9,0.2c-0.2,0.1-0.4,0.1-0.5,0.3s-0.2,0.3-0.2,0.6v0.9c0,0.2,0.1,0.4,0.2,0.6
	c0.1,0.2,0.3,0.3,0.5,0.3l0.9,0.2v0.1c0,0,0,0.1,0.1,0.1l-0.6,0.7c-0.1,0.2-0.2,0.4-0.1,0.6c0,0.2,0.1,0.4,0.3,0.6l0.7,0.7
	c0.2,0.2,0.3,0.3,0.5,0.3c0.2,0,0.4,0,0.6-0.1l0.7-0.5c0,0,0,0,0.1,0l0,0c0,0,0,0,0.1,0l0,0l0.2,0.9c0.1,0.2,0.1,0.4,0.3,0.5
	C21,25,21.2,25.1,21.5,25.1z M21.7,24.1c-0.1,0-0.1,0-0.1-0.1c0,0-0.1-0.1-0.1-0.1l-0.3-1.2c-0.3-0.1-0.7-0.2-0.9-0.4l-1.1,0.7
	c-0.1,0-0.1,0.1-0.1,0.1C19,23,19,23,19,22.9l-0.4-0.4c-0.1-0.1-0.1-0.1-0.1-0.1c0-0.1,0-0.1,0-0.1l0.7-1.1
	c-0.1-0.1-0.1-0.3-0.2-0.4c-0.1-0.2-0.1-0.3-0.2-0.5L17.6,20c-0.1,0-0.1,0-0.1-0.1c0-0.1-0.1-0.1-0.1-0.1v-0.6c0-0.1,0-0.1,0.1-0.1
	c0-0.1,0.1-0.1,0.1-0.1l1.2-0.3c0.1-0.2,0.1-0.4,0.2-0.5c0.1-0.2,0.1-0.3,0.2-0.4l-0.7-1.1c0-0.1,0-0.1,0-0.1c0-0.1,0-0.1,0.1-0.1
	l0.4-0.4C19,16,19,16,19.1,16c0.1,0,0.1,0,0.1,0l1.1,0.7c0.3-0.2,0.6-0.3,0.9-0.4l0.3-1.2c0-0.1,0.1-0.1,0.1-0.1
	c0,0,0.1-0.1,0.1-0.1h0.5c0.1,0,0.1,0,0.1,0.1c0,0,0.1,0.1,0.1,0.1l0.3,1.2c0.3,0.1,0.7,0.2,0.9,0.4l1.1-0.7c0.1,0,0.1,0,0.1,0
	c0.1,0,0.1,0,0.1,0.1l0.4,0.4c0.1,0.1,0.1,0.1,0.1,0.1c0,0.1,0,0.1,0,0.1l-0.7,1.1c0.1,0.1,0.1,0.3,0.2,0.4c0.1,0.1,0.1,0.3,0.2,0.5
	l1.2,0.3c0.1,0,0.1,0.1,0.1,0.1c0,0.1,0.1,0.1,0.1,0.1v0.6c0,0.1,0,0.1-0.1,0.1c0,0.1-0.1,0.1-0.1,0.1l-1.2,0.3
	c-0.1,0.2-0.1,0.4-0.2,0.5c-0.1,0.2-0.1,0.3-0.2,0.4l0.7,1.1c0,0.1,0,0.1,0,0.1c0,0.1,0,0.1-0.1,0.1L25,22.9
	C24.9,23,24.9,23,24.8,23c-0.1,0-0.1,0-0.1-0.1l-1.1-0.7c-0.3,0.2-0.6,0.3-0.9,0.4l-0.3,1.2c0,0.1,0,0.1-0.1,0.1
	c0,0-0.1,0.1-0.1,0.1H21.7z M22,21.5c0.5,0,1-0.2,1.4-0.6S24,20,24,19.5c0-0.3-0.1-0.7-0.3-1c-0.2-0.3-0.4-0.5-0.7-0.7
	c-0.3-0.2-0.6-0.3-1-0.3c-0.5,0-1,0.2-1.4,0.6c-0.4,0.4-0.6,0.9-0.6,1.4c0,0.3,0.1,0.7,0.3,1c0.2,0.3,0.4,0.5,0.7,0.7
	C21.2,21.4,21.6,21.5,22,21.5z M22,20.5c-0.3,0-0.5-0.1-0.7-0.3C21.1,20,21,19.8,21,19.5c0-0.3,0.1-0.5,0.3-0.7
	c0.2-0.2,0.4-0.3,0.7-0.3s0.5,0.1,0.7,0.3c0.2,0.2,0.3,0.4,0.3,0.7c0,0.3-0.1,0.5-0.3,0.7C22.4,20.4,22.2,20.5,22,20.5z"/>
</svg>
