<?xml version="1.0" encoding="utf-8"?>
<!-- Generator: Adobe Illustrator 25.1.0, SVG Export Plug-In . SVG Version: 6.00 Build 0)  -->
<svg version="1.1" id="Capa_1" xmlns="http://www.w3.org/2000/svg" xmlns:xlink="http://www.w3.org/1999/xlink" x="0px" y="0px"
	 viewBox="0 0 32 32" style="enable-background:new 0 0 32 32;" xml:space="preserve">
<style type="text/css">
	.st0{fill:#9CD919;}
</style>
<path class="st0" d="M8.1,27.4h16.7c2.1,0,3.1-0.7,3.1-2c0-0.8-0.3-1.7-0.8-2.6c-0.5-0.9-1.2-1.8-2.3-2.6c-1-0.8-2.2-1.5-3.6-2
	c-1.5-0.5-3-0.8-4.8-0.8s-3.4,0.3-4.8,0.8c-1.5,0.5-2.6,1.2-3.6,2c-1,0.8-1.8,1.7-2.3,2.6c-0.5,0.9-0.8,1.8-0.8,2.6
	C5,26.8,6,27.4,8.1,27.4z M7.5,25.7c-0.2,0-0.4,0-0.5-0.1c-0.1-0.1-0.1-0.2-0.1-0.3c0-0.5,0.2-1.2,0.6-1.9c0.4-0.7,1-1.4,1.9-2
	c0.8-0.6,1.8-1.2,3-1.6c1.1-0.4,2.5-0.6,4-0.6c1.6,0,2.9,0.2,4,0.6c1.1,0.4,2.2,1,3,1.6c0.8,0.6,1.5,1.3,1.9,2
	c0.4,0.7,0.6,1.3,0.6,1.9c0,0.2,0,0.3-0.1,0.3c-0.1,0.1-0.2,0.1-0.5,0.1H7.5z M16.4,15.9c1,0,2-0.3,2.8-0.8c0.8-0.5,1.6-1.3,2.1-2.1
	c0.5-0.9,0.7-1.9,0.7-3s-0.2-2-0.7-2.9c-0.5-0.9-1.1-1.6-2.1-2.1c-0.8-0.5-1.8-0.8-2.8-0.8s-2,0.3-2.8,0.8c-0.8,0.5-1.6,1.2-2.1,2.1
	s-0.7,1.8-0.7,2.9s0.2,2.1,0.7,3s1.1,1.6,2.1,2.1C14.4,15.6,15.4,15.9,16.4,15.9z M16.4,14.1c-0.6,0-1.2-0.2-1.9-0.5
	c-0.5-0.4-1-0.9-1.3-1.5c-0.3-0.6-0.5-1.3-0.5-2.1c0-0.8,0.1-1.4,0.5-2C13.5,7.5,14,7,14.5,6.7c0.5-0.4,1.1-0.5,1.9-0.5
	c0.7,0,1.3,0.2,1.9,0.5c0.5,0.3,1,0.8,1.3,1.4s0.5,1.3,0.5,2c0,0.8-0.2,1.5-0.5,2.1c-0.3,0.6-0.8,1.1-1.3,1.5
	C17.7,13.9,17.1,14.1,16.4,14.1z"/>
</svg>
