<?xml version="1.0" encoding="utf-8"?>
<!-- Generator: Adobe Illustrator 25.1.0, SVG Export Plug-In . SVG Version: 6.00 Build 0)  -->
<svg version="1.1" id="Capa_1" xmlns="http://www.w3.org/2000/svg" xmlns:xlink="http://www.w3.org/1999/xlink" x="0px" y="0px"
	 viewBox="0 0 32 32" style="enable-background:new 0 0 32 32;" xml:space="preserve">
<style type="text/css">
	.st0{fill:#9CD919;}
</style>
<g>
	<path class="st0" d="M16,27.5c1.6,0,3-0.3,4.5-0.9c1.3-0.6,2.6-1.4,3.7-2.5c1.1-1.1,1.9-2.2,2.5-3.7c0.6-1.4,0.9-2.9,0.9-4.5
		c0-1.6-0.3-3-0.9-4.4C26,10.1,25.2,9,24.1,7.9C23,6.8,21.9,6,20.4,5.4c-1.3-0.6-2.9-0.9-4.5-0.9c-1.6,0-3,0.3-4.4,0.9
		S9,6.8,7.9,7.9C6.8,9,6,10.1,5.4,11.6c-0.6,1.3-0.9,2.9-0.9,4.4c0,1.6,0.3,3,0.9,4.5C6,21.8,6.8,23,7.9,24.1s2.2,1.9,3.7,2.5
		C12.9,27.2,14.4,27.5,16,27.5z M16,25.8c-1.3,0-2.6-0.3-3.8-0.7C10.9,24.5,9.9,23.9,9,23c-0.9-0.9-1.6-2-2.1-3.1
		c-0.5-1.2-0.7-2.4-0.7-3.8c0-1.3,0.3-2.6,0.7-3.8C7.5,11.1,8.1,10,9,9.2c0.9-0.9,1.9-1.6,3.1-2.1c1.2-0.5,2.4-0.7,3.8-0.7
		s2.6,0.3,3.8,0.7c1.2,0.5,2.2,1.2,3.1,2.1c0.9,0.9,1.6,2,2.1,3.1c0.5,1.2,0.7,2.4,0.7,3.8c0,1.3-0.3,2.6-0.7,3.8
		c-0.5,1.2-1.2,2.2-2.1,3.1s-2,1.6-3.1,2.1C18.6,25.5,17.3,25.8,16,25.8z M16,22.5c0.2,0,0.3,0,0.4-0.1c0.1-0.1,0.2-0.2,0.2-0.4
		v-0.8c0.9-0.1,1.6-0.4,2.2-0.9c0.6-0.5,0.9-1.2,0.9-2.1c0-0.7-0.3-1.3-0.7-1.8c-0.4-0.4-1.3-0.8-2.2-1h-0.2v-3.2
		c0.4,0.1,0.8,0.3,1.1,0.4c0.3,0.3,0.5,0.5,0.6,1c0.1,0.4,0.4,0.5,0.6,0.5c0.2,0,0.4-0.1,0.4-0.2c0.1-0.1,0.2-0.3,0.2-0.4
		c0-0.1,0-0.1,0-0.2c0-0.1,0-0.1,0-0.2c-0.2-0.6-0.4-1.1-1-1.5c-0.5-0.4-1.2-0.6-1.9-0.7v-0.8c0-0.2-0.1-0.3-0.2-0.4
		c-0.1-0.1-0.2-0.2-0.4-0.2c-0.4,0-0.5,0.2-0.5,0.5V11c-0.9,0.1-1.5,0.4-2.1,0.9c-0.5,0.5-0.8,1.2-0.8,1.9c0,0.7,0.3,1.3,0.7,1.7
		s1.2,0.7,2.1,1h0.1V20c-0.5-0.1-1-0.3-1.3-0.5c-0.4-0.3-0.5-0.6-0.6-1c-0.1-0.2-0.2-0.4-0.3-0.4s-0.3-0.1-0.4-0.1
		c-0.2,0-0.4,0.1-0.4,0.2s-0.2,0.3-0.2,0.4c0,0.1,0,0.1,0,0.2s0,0.1,0,0.2c0.2,0.6,0.5,1.2,1.1,1.6c0.5,0.4,1.3,0.6,2.1,0.7V22
		C15.5,22.3,15.6,22.5,16,22.5z M15.5,15.1L15.5,15.1c-0.6-0.2-1-0.4-1.3-0.6c-0.3-0.3-0.4-0.5-0.4-0.9c0-0.4,0.2-0.7,0.4-1
		c0.3-0.3,0.7-0.4,1.3-0.5L15.5,15.1L15.5,15.1z M16.5,16.8l0.3,0.1c0.6,0.2,1,0.4,1.3,0.6c0.3,0.3,0.4,0.5,0.4,0.9
		c0,0.4-0.2,0.8-0.4,1.1c-0.3,0.3-0.8,0.4-1.3,0.5L16.5,16.8L16.5,16.8z"/>
</g>
</svg>
